<mxfile host="www.draw.io" modified="2020-02-09T16:26:03.505Z" agent="Mozilla/5.0 (X11; Linux x86_64) AppleWebKit/537.36 (KHTML, like Gecko) Ubuntu Chromium/79.0.3945.130 Chrome/79.0.3945.130 Safari/537.36" etag="9fvaKPoMs7qIZy9Pobm_" version="12.6.6" type="github">
  <diagram id="de-YyN_g1jIC8BKxW4O4" name="Page-1">
    <mxGraphModel dx="831" dy="2143" grid="1" gridSize="10" guides="1" tooltips="1" connect="1" arrows="1" fold="1" page="1" pageScale="1" pageWidth="850" pageHeight="1100" math="0" shadow="0">
      <root>
        <mxCell id="0"/>
        <mxCell id="1" parent="0"/>
        <mxCell id="WqeRCM-Ro7xKb6VTzjDS-1" value="" style="ellipse;whiteSpace=wrap;html=1;strokeWidth=1;fillColor=none;dashed=1;dashPattern=1 1;strokeColor=#0000FF;" vertex="1" parent="1">
          <mxGeometry x="760.5" y="822" width="259" height="80" as="geometry"/>
        </mxCell>
        <mxCell id="WqeRCM-Ro7xKb6VTzjDS-2" value="" style="ellipse;whiteSpace=wrap;html=1;strokeWidth=1;fillColor=none;dashed=1;dashPattern=1 1;strokeColor=#0000FF;" vertex="1" parent="1">
          <mxGeometry x="371" y="822" width="259" height="80" as="geometry"/>
        </mxCell>
        <mxCell id="WqeRCM-Ro7xKb6VTzjDS-3" value="&lt;b&gt;ConfD&lt;/b&gt;" style="rounded=1;whiteSpace=wrap;html=1;fillColor=#e1d5e7;strokeColor=none;" vertex="1" parent="1">
          <mxGeometry x="570" y="602" width="80" height="40" as="geometry"/>
        </mxCell>
        <mxCell id="WqeRCM-Ro7xKb6VTzjDS-4" value="&lt;b&gt;StatD&lt;/b&gt;" style="rounded=1;whiteSpace=wrap;html=1;fillColor=#e1d5e7;strokeColor=none;" vertex="1" parent="1">
          <mxGeometry x="896" y="602" width="80" height="40" as="geometry"/>
        </mxCell>
        <mxCell id="WqeRCM-Ro7xKb6VTzjDS-5" value="&lt;b&gt;MonitorD&lt;/b&gt;" style="rounded=1;whiteSpace=wrap;html=1;fillColor=#e1d5e7;strokeColor=none;" vertex="1" parent="1">
          <mxGeometry x="745.5" y="600" width="80" height="40" as="geometry"/>
        </mxCell>
        <mxCell id="WqeRCM-Ro7xKb6VTzjDS-6" value="&lt;b&gt;Logger&lt;/b&gt;" style="rounded=1;whiteSpace=wrap;html=1;fillColor=#e1d5e7;strokeColor=none;" vertex="1" parent="1">
          <mxGeometry x="440" y="650" width="80" height="40" as="geometry"/>
        </mxCell>
        <mxCell id="WqeRCM-Ro7xKb6VTzjDS-7" value="" style="endArrow=none;html=1;" edge="1" parent="1">
          <mxGeometry width="50" height="50" relative="1" as="geometry">
            <mxPoint x="340" y="722" as="sourcePoint"/>
            <mxPoint x="1130" y="722" as="targetPoint"/>
          </mxGeometry>
        </mxCell>
        <mxCell id="WqeRCM-Ro7xKb6VTzjDS-8" value="Control Path" style="text;html=1;strokeColor=none;fillColor=none;align=center;verticalAlign=middle;whiteSpace=wrap;rounded=0;" vertex="1" parent="1">
          <mxGeometry x="930" y="702" width="120" height="20" as="geometry"/>
        </mxCell>
        <mxCell id="WqeRCM-Ro7xKb6VTzjDS-9" value="Data Path" style="text;html=1;strokeColor=none;fillColor=none;align=center;verticalAlign=middle;whiteSpace=wrap;rounded=0;" vertex="1" parent="1">
          <mxGeometry x="930" y="722" width="120" height="20" as="geometry"/>
        </mxCell>
        <mxCell id="WqeRCM-Ro7xKb6VTzjDS-10" value="&lt;b&gt;Kafka Client&lt;/b&gt;" style="rounded=1;whiteSpace=wrap;html=1;fillColor=#76608a;strokeColor=none;fontColor=#ffffff;" vertex="1" parent="1">
          <mxGeometry x="855" y="442" width="80" height="40" as="geometry"/>
        </mxCell>
        <mxCell id="WqeRCM-Ro7xKb6VTzjDS-11" value="&lt;b&gt;Etcd Client&lt;/b&gt;" style="rounded=1;whiteSpace=wrap;html=1;fillColor=#76608a;strokeColor=none;fontColor=#ffffff;" vertex="1" parent="1">
          <mxGeometry x="530" y="442" width="80" height="40" as="geometry"/>
        </mxCell>
        <mxCell id="WqeRCM-Ro7xKb6VTzjDS-12" value="&lt;b&gt;DataStore&lt;/b&gt;" style="shape=cylinder;whiteSpace=wrap;html=1;boundedLbl=1;backgroundOutline=1;strokeWidth=2;fillColor=#F19C99;" vertex="1" parent="1">
          <mxGeometry x="700" y="510" width="60" height="50" as="geometry"/>
        </mxCell>
        <mxCell id="WqeRCM-Ro7xKb6VTzjDS-13" value="&lt;b&gt;Server Interface&lt;/b&gt;" style="rounded=1;whiteSpace=wrap;html=1;fillColor=#b0e3e6;strokeColor=none;" vertex="1" parent="1">
          <mxGeometry x="470" y="762" width="120" height="30" as="geometry"/>
        </mxCell>
        <mxCell id="WqeRCM-Ro7xKb6VTzjDS-14" value="&lt;b&gt;Client Interface&lt;/b&gt;" style="rounded=1;whiteSpace=wrap;html=1;fillColor=#b0e3e6;strokeColor=none;" vertex="1" parent="1">
          <mxGeometry x="830" y="762" width="120" height="30" as="geometry"/>
        </mxCell>
        <mxCell id="WqeRCM-Ro7xKb6VTzjDS-15" value="&lt;b&gt;UDP&lt;/b&gt;" style="rounded=1;whiteSpace=wrap;html=1;fillColor=#1ba1e2;strokeColor=#006EAF;fontColor=#ffffff;" vertex="1" parent="1">
          <mxGeometry x="410" y="842" width="40" height="40" as="geometry"/>
        </mxCell>
        <mxCell id="WqeRCM-Ro7xKb6VTzjDS-16" value="&lt;b&gt;TCP&lt;/b&gt;" style="rounded=1;whiteSpace=wrap;html=1;fillColor=#1ba1e2;strokeColor=#006EAF;fontColor=#ffffff;" vertex="1" parent="1">
          <mxGeometry x="470" y="842" width="40" height="40" as="geometry"/>
        </mxCell>
        <mxCell id="WqeRCM-Ro7xKb6VTzjDS-17" value="&lt;b&gt;UDP&lt;/b&gt;" style="rounded=1;whiteSpace=wrap;html=1;fillColor=#1ba1e2;strokeColor=#006EAF;fontColor=#ffffff;" vertex="1" parent="1">
          <mxGeometry x="795" y="842" width="40" height="40" as="geometry"/>
        </mxCell>
        <mxCell id="WqeRCM-Ro7xKb6VTzjDS-18" value="&lt;b&gt;TCP&lt;/b&gt;" style="rounded=1;whiteSpace=wrap;html=1;fillColor=#1ba1e2;strokeColor=#006EAF;fontColor=#ffffff;" vertex="1" parent="1">
          <mxGeometry x="855" y="842" width="40" height="40" as="geometry"/>
        </mxCell>
        <mxCell id="WqeRCM-Ro7xKb6VTzjDS-19" value="&lt;b&gt;ICMP&lt;/b&gt;" style="rounded=1;whiteSpace=wrap;html=1;fillColor=#1ba1e2;strokeColor=#006EAF;fontColor=#ffffff;" vertex="1" parent="1">
          <mxGeometry x="915" y="842" width="40" height="40" as="geometry"/>
        </mxCell>
        <mxCell id="WqeRCM-Ro7xKb6VTzjDS-20" value="" style="endArrow=none;dashed=1;html=1;strokeWidth=3;dashPattern=1 1;" edge="1" parent="1">
          <mxGeometry width="50" height="50" relative="1" as="geometry">
            <mxPoint x="520" y="861.5" as="sourcePoint"/>
            <mxPoint x="540" y="862" as="targetPoint"/>
          </mxGeometry>
        </mxCell>
        <mxCell id="WqeRCM-Ro7xKb6VTzjDS-21" value="" style="endArrow=none;dashed=1;html=1;strokeWidth=3;dashPattern=1 1;" edge="1" parent="1">
          <mxGeometry width="50" height="50" relative="1" as="geometry">
            <mxPoint x="965" y="861.5" as="sourcePoint"/>
            <mxPoint x="985" y="862" as="targetPoint"/>
          </mxGeometry>
        </mxCell>
        <mxCell id="WqeRCM-Ro7xKb6VTzjDS-22" value="" style="endArrow=classic;startArrow=classic;html=1;strokeWidth=2;entryX=0.5;entryY=1;entryDx=0;entryDy=0;exitX=0.5;exitY=0;exitDx=0;exitDy=0;" edge="1" parent="1" source="WqeRCM-Ro7xKb6VTzjDS-15" target="WqeRCM-Ro7xKb6VTzjDS-13">
          <mxGeometry width="50" height="50" relative="1" as="geometry">
            <mxPoint x="340" y="950" as="sourcePoint"/>
            <mxPoint x="390" y="900" as="targetPoint"/>
          </mxGeometry>
        </mxCell>
        <mxCell id="WqeRCM-Ro7xKb6VTzjDS-23" value="" style="endArrow=classic;startArrow=classic;html=1;strokeWidth=2;entryX=0.5;entryY=1;entryDx=0;entryDy=0;exitX=0.5;exitY=0;exitDx=0;exitDy=0;" edge="1" parent="1" source="WqeRCM-Ro7xKb6VTzjDS-16" target="WqeRCM-Ro7xKb6VTzjDS-13">
          <mxGeometry width="50" height="50" relative="1" as="geometry">
            <mxPoint x="440" y="852" as="sourcePoint"/>
            <mxPoint x="540" y="802" as="targetPoint"/>
          </mxGeometry>
        </mxCell>
        <mxCell id="WqeRCM-Ro7xKb6VTzjDS-24" value="" style="endArrow=classic;startArrow=classic;html=1;strokeWidth=2;entryX=0.5;entryY=1;entryDx=0;entryDy=0;exitX=0.5;exitY=0;exitDx=0;exitDy=0;" edge="1" parent="1" source="WqeRCM-Ro7xKb6VTzjDS-17" target="WqeRCM-Ro7xKb6VTzjDS-14">
          <mxGeometry width="50" height="50" relative="1" as="geometry">
            <mxPoint x="450" y="862" as="sourcePoint"/>
            <mxPoint x="550" y="812" as="targetPoint"/>
          </mxGeometry>
        </mxCell>
        <mxCell id="WqeRCM-Ro7xKb6VTzjDS-25" value="" style="endArrow=classic;startArrow=classic;html=1;strokeWidth=2;entryX=0.5;entryY=1;entryDx=0;entryDy=0;" edge="1" parent="1" target="WqeRCM-Ro7xKb6VTzjDS-13">
          <mxGeometry width="50" height="50" relative="1" as="geometry">
            <mxPoint x="570" y="850" as="sourcePoint"/>
            <mxPoint x="590" y="800" as="targetPoint"/>
          </mxGeometry>
        </mxCell>
        <mxCell id="WqeRCM-Ro7xKb6VTzjDS-26" value="&lt;b&gt;Agent Runner&lt;/b&gt;" style="rounded=1;whiteSpace=wrap;html=1;fillColor=#0050ef;strokeColor=#001DBC;fontColor=#ffffff;" vertex="1" parent="1">
          <mxGeometry x="690" y="670" width="80" height="40" as="geometry"/>
        </mxCell>
        <mxCell id="WqeRCM-Ro7xKb6VTzjDS-27" value="" style="endArrow=classic;startArrow=classic;html=1;strokeWidth=2;entryX=0.5;entryY=1;entryDx=0;entryDy=0;exitX=0.5;exitY=0;exitDx=0;exitDy=0;" edge="1" parent="1" source="WqeRCM-Ro7xKb6VTzjDS-18" target="WqeRCM-Ro7xKb6VTzjDS-14">
          <mxGeometry width="50" height="50" relative="1" as="geometry">
            <mxPoint x="825" y="852" as="sourcePoint"/>
            <mxPoint x="900" y="802" as="targetPoint"/>
          </mxGeometry>
        </mxCell>
        <mxCell id="WqeRCM-Ro7xKb6VTzjDS-28" value="" style="endArrow=classic;startArrow=classic;html=1;strokeWidth=2;exitX=0.5;exitY=0;exitDx=0;exitDy=0;" edge="1" parent="1" source="WqeRCM-Ro7xKb6VTzjDS-19">
          <mxGeometry width="50" height="50" relative="1" as="geometry">
            <mxPoint x="835" y="862" as="sourcePoint"/>
            <mxPoint x="890" y="790" as="targetPoint"/>
          </mxGeometry>
        </mxCell>
        <mxCell id="WqeRCM-Ro7xKb6VTzjDS-29" value="" style="endArrow=classic;startArrow=classic;html=1;strokeWidth=2;entryX=0.5;entryY=1;entryDx=0;entryDy=0;" edge="1" parent="1" target="WqeRCM-Ro7xKb6VTzjDS-14">
          <mxGeometry width="50" height="50" relative="1" as="geometry">
            <mxPoint x="1010" y="850" as="sourcePoint"/>
            <mxPoint x="920" y="822" as="targetPoint"/>
          </mxGeometry>
        </mxCell>
        <mxCell id="WqeRCM-Ro7xKb6VTzjDS-30" value="" style="endArrow=none;startArrow=classic;html=1;strokeWidth=2;entryX=0.5;entryY=1;entryDx=0;entryDy=0;exitX=0.5;exitY=0;exitDx=0;exitDy=0;endFill=0;" edge="1" parent="1" source="WqeRCM-Ro7xKb6VTzjDS-13" target="WqeRCM-Ro7xKb6VTzjDS-26">
          <mxGeometry width="50" height="50" relative="1" as="geometry">
            <mxPoint x="855" y="882" as="sourcePoint"/>
            <mxPoint x="930" y="832" as="targetPoint"/>
          </mxGeometry>
        </mxCell>
        <mxCell id="WqeRCM-Ro7xKb6VTzjDS-31" value="" style="endArrow=none;startArrow=classic;html=1;strokeWidth=2;entryX=0.5;entryY=1;entryDx=0;entryDy=0;exitX=0.5;exitY=0;exitDx=0;exitDy=0;endFill=0;" edge="1" parent="1" source="WqeRCM-Ro7xKb6VTzjDS-14" target="WqeRCM-Ro7xKb6VTzjDS-26">
          <mxGeometry width="50" height="50" relative="1" as="geometry">
            <mxPoint x="540" y="772" as="sourcePoint"/>
            <mxPoint x="730" y="720" as="targetPoint"/>
          </mxGeometry>
        </mxCell>
        <mxCell id="WqeRCM-Ro7xKb6VTzjDS-32" value="" style="shape=image;html=1;verticalAlign=top;verticalLabelPosition=bottom;labelBackgroundColor=#ffffff;imageAspect=0;aspect=fixed;image=https://cdn2.iconfinder.com/data/icons/appicns/128/472772-appicns_Terminal.png;strokeWidth=2;" vertex="1" parent="1">
          <mxGeometry x="360" y="608" width="28" height="28" as="geometry"/>
        </mxCell>
        <mxCell id="WqeRCM-Ro7xKb6VTzjDS-33" value="" style="endArrow=none;startArrow=classic;html=1;strokeWidth=1;exitX=1;exitY=0.5;exitDx=0;exitDy=0;endFill=0;" edge="1" parent="1" source="WqeRCM-Ro7xKb6VTzjDS-66">
          <mxGeometry width="50" height="50" relative="1" as="geometry">
            <mxPoint x="388" y="699" as="sourcePoint"/>
            <mxPoint x="420" y="670" as="targetPoint"/>
          </mxGeometry>
        </mxCell>
        <mxCell id="WqeRCM-Ro7xKb6VTzjDS-34" value="" style="endArrow=classic;startArrow=none;html=1;strokeWidth=1;entryX=1;entryY=0.5;entryDx=0;entryDy=0;startFill=0;" edge="1" parent="1" target="WqeRCM-Ro7xKb6VTzjDS-32">
          <mxGeometry width="50" height="50" relative="1" as="geometry">
            <mxPoint x="420" y="670" as="sourcePoint"/>
            <mxPoint x="355" y="689" as="targetPoint"/>
          </mxGeometry>
        </mxCell>
        <mxCell id="WqeRCM-Ro7xKb6VTzjDS-35" value="&lt;font style=&quot;font-size: 10px&quot;&gt;Stdout&lt;/font&gt;" style="text;html=1;align=center;verticalAlign=middle;resizable=0;points=[];labelBackgroundColor=#ffffff;" vertex="1" connectable="0" parent="WqeRCM-Ro7xKb6VTzjDS-34">
          <mxGeometry x="0.2941" y="3" relative="1" as="geometry">
            <mxPoint as="offset"/>
          </mxGeometry>
        </mxCell>
        <mxCell id="WqeRCM-Ro7xKb6VTzjDS-36" value="" style="endArrow=none;startArrow=classic;html=1;strokeWidth=2;entryX=0.5;entryY=1;entryDx=0;entryDy=0;exitX=0.5;exitY=0;exitDx=0;exitDy=0;endFill=0;" edge="1" parent="1" source="WqeRCM-Ro7xKb6VTzjDS-26" target="WqeRCM-Ro7xKb6VTzjDS-3">
          <mxGeometry width="50" height="50" relative="1" as="geometry">
            <mxPoint x="540" y="772" as="sourcePoint"/>
            <mxPoint x="730" y="720" as="targetPoint"/>
          </mxGeometry>
        </mxCell>
        <mxCell id="WqeRCM-Ro7xKb6VTzjDS-37" value="" style="endArrow=none;startArrow=classic;html=1;strokeWidth=2;entryX=0.5;entryY=1;entryDx=0;entryDy=0;exitX=0.5;exitY=0;exitDx=0;exitDy=0;endFill=0;" edge="1" parent="1" source="WqeRCM-Ro7xKb6VTzjDS-26" target="WqeRCM-Ro7xKb6VTzjDS-12">
          <mxGeometry width="50" height="50" relative="1" as="geometry">
            <mxPoint x="550" y="782" as="sourcePoint"/>
            <mxPoint x="740" y="730" as="targetPoint"/>
          </mxGeometry>
        </mxCell>
        <mxCell id="WqeRCM-Ro7xKb6VTzjDS-38" value="" style="endArrow=classic;startArrow=none;html=1;strokeWidth=2;entryX=0.5;entryY=1;entryDx=0;entryDy=0;startFill=0;" edge="1" parent="1" source="WqeRCM-Ro7xKb6VTzjDS-5" target="WqeRCM-Ro7xKb6VTzjDS-12">
          <mxGeometry width="50" height="50" relative="1" as="geometry">
            <mxPoint x="560" y="792" as="sourcePoint"/>
            <mxPoint x="750" y="740" as="targetPoint"/>
          </mxGeometry>
        </mxCell>
        <mxCell id="WqeRCM-Ro7xKb6VTzjDS-39" value="" style="endArrow=none;startArrow=classic;html=1;strokeWidth=1;entryX=0;entryY=0.5;entryDx=0;entryDy=0;endFill=0;" edge="1" parent="1" target="WqeRCM-Ro7xKb6VTzjDS-6">
          <mxGeometry width="50" height="50" relative="1" as="geometry">
            <mxPoint x="420" y="670" as="sourcePoint"/>
            <mxPoint x="477" y="583" as="targetPoint"/>
          </mxGeometry>
        </mxCell>
        <mxCell id="WqeRCM-Ro7xKb6VTzjDS-40" value="&lt;font color=&quot;#0000ff&quot;&gt;Server Impl&lt;br&gt;&lt;/font&gt;" style="text;html=1;align=center;verticalAlign=middle;resizable=0;points=[];autosize=1;" vertex="1" parent="1">
          <mxGeometry x="460.5" y="882" width="80" height="20" as="geometry"/>
        </mxCell>
        <mxCell id="WqeRCM-Ro7xKb6VTzjDS-41" value="&lt;font color=&quot;#0000ff&quot;&gt;Client Impl&lt;br&gt;&lt;/font&gt;" style="text;html=1;align=center;verticalAlign=middle;resizable=0;points=[];autosize=1;" vertex="1" parent="1">
          <mxGeometry x="865" y="882" width="70" height="20" as="geometry"/>
        </mxCell>
        <mxCell id="WqeRCM-Ro7xKb6VTzjDS-42" value="etcd" style="html=1;dashed=0;whitespace=wrap;fillColor=#2875E2;strokeColor=#ffffff;points=[[0.005,0.63,0],[0.1,0.2,0],[0.9,0.2,0],[0.5,0,0],[0.995,0.63,0],[0.72,0.99,0],[0.5,1,0],[0.28,0.99,0]];shape=mxgraph.kubernetes.icon;prIcon=etcd;dashPattern=1 1;" vertex="1" parent="1">
          <mxGeometry x="545" y="350" width="50" height="48" as="geometry"/>
        </mxCell>
        <mxCell id="WqeRCM-Ro7xKb6VTzjDS-43" value="" style="endArrow=none;startArrow=classic;html=1;strokeWidth=2;entryX=0.5;entryY=1;entryDx=0;entryDy=0;endFill=0;entryPerimeter=0;" edge="1" parent="1" source="WqeRCM-Ro7xKb6VTzjDS-11" target="WqeRCM-Ro7xKb6VTzjDS-42">
          <mxGeometry width="50" height="50" relative="1" as="geometry">
            <mxPoint x="620" y="612" as="sourcePoint"/>
            <mxPoint x="740" y="570" as="targetPoint"/>
          </mxGeometry>
        </mxCell>
        <mxCell id="WqeRCM-Ro7xKb6VTzjDS-44" value="" style="endArrow=none;startArrow=classic;html=1;strokeWidth=2;entryX=1;entryY=0.5;entryDx=0;entryDy=0;exitX=0.5;exitY=0;exitDx=0;exitDy=0;endFill=0;" edge="1" parent="1" source="WqeRCM-Ro7xKb6VTzjDS-12" target="WqeRCM-Ro7xKb6VTzjDS-11">
          <mxGeometry width="50" height="50" relative="1" as="geometry">
            <mxPoint x="630" y="622" as="sourcePoint"/>
            <mxPoint x="750" y="580" as="targetPoint"/>
          </mxGeometry>
        </mxCell>
        <mxCell id="WqeRCM-Ro7xKb6VTzjDS-45" value="" style="endArrow=none;startArrow=classic;html=1;strokeWidth=2;entryX=0.5;entryY=0;entryDx=0;entryDy=0;endFill=0;exitX=0;exitY=0.5;exitDx=0;exitDy=0;" edge="1" parent="1" source="WqeRCM-Ro7xKb6VTzjDS-10" target="WqeRCM-Ro7xKb6VTzjDS-12">
          <mxGeometry width="50" height="50" relative="1" as="geometry">
            <mxPoint x="870" y="550" as="sourcePoint"/>
            <mxPoint x="760" y="590" as="targetPoint"/>
          </mxGeometry>
        </mxCell>
        <mxCell id="WqeRCM-Ro7xKb6VTzjDS-46" value="kafka" style="outlineConnect=0;fontColor=#232F3E;gradientColor=#945DF2;gradientDirection=north;fillColor=#5A30B5;strokeColor=#ffffff;dashed=0;verticalLabelPosition=bottom;verticalAlign=top;align=center;html=1;fontSize=12;fontStyle=0;aspect=fixed;shape=mxgraph.aws4.resourceIcon;resIcon=mxgraph.aws4.managed_streaming_for_kafka;dashPattern=1 1;" vertex="1" parent="1">
          <mxGeometry x="875" y="350" width="40" height="40" as="geometry"/>
        </mxCell>
        <mxCell id="WqeRCM-Ro7xKb6VTzjDS-47" value="" style="endArrow=none;startArrow=classic;html=1;strokeWidth=2;entryX=0.5;entryY=0;entryDx=0;entryDy=0;endFill=0;" edge="1" parent="1" source="WqeRCM-Ro7xKb6VTzjDS-46" target="WqeRCM-Ro7xKb6VTzjDS-10">
          <mxGeometry width="50" height="50" relative="1" as="geometry">
            <mxPoint x="910" y="380" as="sourcePoint"/>
            <mxPoint x="770" y="600" as="targetPoint"/>
          </mxGeometry>
        </mxCell>
        <mxCell id="WqeRCM-Ro7xKb6VTzjDS-48" value="" style="shape=image;html=1;verticalAlign=top;verticalLabelPosition=bottom;labelBackgroundColor=#ffffff;imageAspect=0;aspect=fixed;image=https://cdn2.iconfinder.com/data/icons/appicns/128/472772-appicns_Terminal.png;strokeWidth=2;" vertex="1" parent="1">
          <mxGeometry x="922" y="532" width="28" height="28" as="geometry"/>
        </mxCell>
        <mxCell id="WqeRCM-Ro7xKb6VTzjDS-49" value="" style="endArrow=classic;startArrow=none;html=1;strokeWidth=1;entryX=0.5;entryY=1;entryDx=0;entryDy=0;startFill=0;" edge="1" parent="1" target="WqeRCM-Ro7xKb6VTzjDS-48">
          <mxGeometry width="50" height="50" relative="1" as="geometry">
            <mxPoint x="850" y="580" as="sourcePoint"/>
            <mxPoint x="540" y="545" as="targetPoint"/>
          </mxGeometry>
        </mxCell>
        <mxCell id="WqeRCM-Ro7xKb6VTzjDS-50" value="&lt;font style=&quot;font-size: 10px&quot;&gt;Stdout&lt;/font&gt;" style="text;html=1;align=center;verticalAlign=middle;resizable=0;points=[];labelBackgroundColor=#ffffff;" vertex="1" connectable="0" parent="WqeRCM-Ro7xKb6VTzjDS-49">
          <mxGeometry x="0.2941" y="3" relative="1" as="geometry">
            <mxPoint as="offset"/>
          </mxGeometry>
        </mxCell>
        <mxCell id="WqeRCM-Ro7xKb6VTzjDS-51" value="" style="endArrow=none;startArrow=classic;html=1;strokeWidth=1;entryX=0;entryY=0.5;entryDx=0;entryDy=0;endFill=0;edgeStyle=elbowEdgeStyle;" edge="1" parent="1" target="WqeRCM-Ro7xKb6VTzjDS-4">
          <mxGeometry width="50" height="50" relative="1" as="geometry">
            <mxPoint x="850" y="580" as="sourcePoint"/>
            <mxPoint x="500" y="612" as="targetPoint"/>
            <Array as="points">
              <mxPoint x="850" y="600"/>
            </Array>
          </mxGeometry>
        </mxCell>
        <mxCell id="WqeRCM-Ro7xKb6VTzjDS-52" value="" style="endArrow=none;startArrow=classic;html=1;strokeWidth=1;exitX=0.5;exitY=1;exitDx=0;exitDy=0;endFill=0;" edge="1" parent="1" source="WqeRCM-Ro7xKb6VTzjDS-67">
          <mxGeometry width="50" height="50" relative="1" as="geometry">
            <mxPoint x="849" y="548" as="sourcePoint"/>
            <mxPoint x="850" y="580" as="targetPoint"/>
          </mxGeometry>
        </mxCell>
        <mxCell id="WqeRCM-Ro7xKb6VTzjDS-53" value="" style="endArrow=none;startArrow=classic;html=1;strokeWidth=1;exitX=0.85;exitY=0.95;exitDx=0;exitDy=0;endFill=0;exitPerimeter=0;" edge="1" parent="1" source="WqeRCM-Ro7xKb6VTzjDS-12">
          <mxGeometry width="50" height="50" relative="1" as="geometry">
            <mxPoint x="470" y="555" as="sourcePoint"/>
            <mxPoint x="850" y="580" as="targetPoint"/>
          </mxGeometry>
        </mxCell>
        <mxCell id="WqeRCM-Ro7xKb6VTzjDS-54" value="" style="curved=1;endArrow=classic;html=1;strokeWidth=1;entryX=0.5;entryY=1;entryDx=0;entryDy=0;exitX=0;exitY=0.5;exitDx=0;exitDy=0;strokeColor=#FF6666;" edge="1" parent="1" source="WqeRCM-Ro7xKb6VTzjDS-2" target="WqeRCM-Ro7xKb6VTzjDS-5">
          <mxGeometry width="50" height="50" relative="1" as="geometry">
            <mxPoint x="370" y="900" as="sourcePoint"/>
            <mxPoint x="690" y="1000" as="targetPoint"/>
            <Array as="points">
              <mxPoint x="340" y="870"/>
              <mxPoint x="330" y="780"/>
              <mxPoint x="360" y="740"/>
            </Array>
          </mxGeometry>
        </mxCell>
        <mxCell id="WqeRCM-Ro7xKb6VTzjDS-55" value="" style="curved=1;endArrow=classic;html=1;strokeColor=#FF6666;strokeWidth=1;exitX=1;exitY=0.5;exitDx=0;exitDy=0;entryX=0.5;entryY=1;entryDx=0;entryDy=0;" edge="1" parent="1" source="WqeRCM-Ro7xKb6VTzjDS-1" target="WqeRCM-Ro7xKb6VTzjDS-5">
          <mxGeometry width="50" height="50" relative="1" as="geometry">
            <mxPoint x="1030" y="1080" as="sourcePoint"/>
            <mxPoint x="1130" y="880" as="targetPoint"/>
            <Array as="points">
              <mxPoint x="1050" y="870"/>
              <mxPoint x="1090" y="740"/>
              <mxPoint x="960" y="670"/>
              <mxPoint x="830" y="670"/>
            </Array>
          </mxGeometry>
        </mxCell>
        <mxCell id="WqeRCM-Ro7xKb6VTzjDS-56" value="" style="curved=1;endArrow=classic;html=1;strokeColor=#7700CC;strokeWidth=1;entryX=0.5;entryY=1;entryDx=0;entryDy=0;exitX=1;exitY=0.5;exitDx=0;exitDy=0;fillColor=#aa00ff;" edge="1" parent="1" source="WqeRCM-Ro7xKb6VTzjDS-2" target="WqeRCM-Ro7xKb6VTzjDS-4">
          <mxGeometry width="50" height="50" relative="1" as="geometry">
            <mxPoint x="340" y="970" as="sourcePoint"/>
            <mxPoint x="390" y="920" as="targetPoint"/>
            <Array as="points">
              <mxPoint x="680" y="860"/>
              <mxPoint x="710" y="790"/>
            </Array>
          </mxGeometry>
        </mxCell>
        <mxCell id="WqeRCM-Ro7xKb6VTzjDS-57" value="" style="curved=1;endArrow=classic;html=1;strokeColor=#7700CC;strokeWidth=1;exitX=0;exitY=0.5;exitDx=0;exitDy=0;fillColor=#aa00ff;entryX=0.5;entryY=1;entryDx=0;entryDy=0;" edge="1" parent="1" source="WqeRCM-Ro7xKb6VTzjDS-1" target="WqeRCM-Ro7xKb6VTzjDS-4">
          <mxGeometry width="50" height="50" relative="1" as="geometry">
            <mxPoint x="340" y="970" as="sourcePoint"/>
            <mxPoint x="940" y="650" as="targetPoint"/>
            <Array as="points">
              <mxPoint x="690" y="870"/>
              <mxPoint x="730" y="810"/>
              <mxPoint x="770" y="780"/>
            </Array>
          </mxGeometry>
        </mxCell>
        <mxCell id="WqeRCM-Ro7xKb6VTzjDS-58" value="" style="curved=1;endArrow=none;html=1;strokeColor=#7EA6E0;strokeWidth=1;dashed=1;exitX=1;exitY=0.5;exitDx=0;exitDy=0;startArrow=classicThin;startFill=1;endFill=0;" edge="1" parent="1" source="WqeRCM-Ro7xKb6VTzjDS-6">
          <mxGeometry width="50" height="50" relative="1" as="geometry">
            <mxPoint x="720" y="902" as="sourcePoint"/>
            <mxPoint x="770" y="852" as="targetPoint"/>
            <Array as="points">
              <mxPoint x="670" y="760"/>
            </Array>
          </mxGeometry>
        </mxCell>
        <mxCell id="WqeRCM-Ro7xKb6VTzjDS-59" value="" style="curved=1;endArrow=none;html=1;dashed=1;strokeColor=#7EA6E0;strokeWidth=1;entryX=0;entryY=0.5;entryDx=0;entryDy=0;exitX=1;exitY=0.5;exitDx=0;exitDy=0;startArrow=classicThin;startFill=1;endFill=0;" edge="1" parent="1" source="WqeRCM-Ro7xKb6VTzjDS-6" target="WqeRCM-Ro7xKb6VTzjDS-14">
          <mxGeometry width="50" height="50" relative="1" as="geometry">
            <mxPoint x="340" y="970" as="sourcePoint"/>
            <mxPoint x="390" y="920" as="targetPoint"/>
            <Array as="points">
              <mxPoint x="610" y="740"/>
              <mxPoint x="760" y="777"/>
            </Array>
          </mxGeometry>
        </mxCell>
        <mxCell id="WqeRCM-Ro7xKb6VTzjDS-60" value="" style="curved=1;endArrow=none;html=1;dashed=1;strokeColor=#7EA6E0;strokeWidth=1;entryX=0.25;entryY=1;entryDx=0;entryDy=0;exitX=1;exitY=0.5;exitDx=0;exitDy=0;startArrow=classicThin;startFill=1;endFill=0;" edge="1" parent="1" source="WqeRCM-Ro7xKb6VTzjDS-6" target="WqeRCM-Ro7xKb6VTzjDS-4">
          <mxGeometry width="50" height="50" relative="1" as="geometry">
            <mxPoint x="340" y="970" as="sourcePoint"/>
            <mxPoint x="390" y="920" as="targetPoint"/>
            <Array as="points">
              <mxPoint x="600" y="670"/>
              <mxPoint x="650" y="670"/>
              <mxPoint x="770" y="660"/>
            </Array>
          </mxGeometry>
        </mxCell>
        <mxCell id="WqeRCM-Ro7xKb6VTzjDS-61" value="" style="curved=1;endArrow=classic;html=1;dashed=1;strokeColor=#7EA6E0;strokeWidth=1;exitX=0;exitY=0;exitDx=0;exitDy=0;entryX=0.5;entryY=1;entryDx=0;entryDy=0;" edge="1" parent="1" source="WqeRCM-Ro7xKb6VTzjDS-2" target="WqeRCM-Ro7xKb6VTzjDS-6">
          <mxGeometry width="50" height="50" relative="1" as="geometry">
            <mxPoint x="480" y="970" as="sourcePoint"/>
            <mxPoint x="530" y="920" as="targetPoint"/>
            <Array as="points">
              <mxPoint x="430" y="740"/>
            </Array>
          </mxGeometry>
        </mxCell>
        <mxCell id="WqeRCM-Ro7xKb6VTzjDS-62" value="" style="curved=1;endArrow=classic;html=1;dashed=1;strokeColor=#7EA6E0;strokeWidth=1;entryX=0.5;entryY=1;entryDx=0;entryDy=0;exitX=0;exitY=0.5;exitDx=0;exitDy=0;" edge="1" parent="1" source="WqeRCM-Ro7xKb6VTzjDS-13" target="WqeRCM-Ro7xKb6VTzjDS-6">
          <mxGeometry width="50" height="50" relative="1" as="geometry">
            <mxPoint x="420" y="1110" as="sourcePoint"/>
            <mxPoint x="390" y="920" as="targetPoint"/>
            <Array as="points">
              <mxPoint x="430" y="777"/>
              <mxPoint x="450" y="730"/>
            </Array>
          </mxGeometry>
        </mxCell>
        <mxCell id="WqeRCM-Ro7xKb6VTzjDS-63" value="" style="curved=1;endArrow=classic;html=1;dashed=1;strokeColor=#7EA6E0;strokeWidth=1;entryX=1;entryY=0.5;entryDx=0;entryDy=0;exitX=0.25;exitY=1;exitDx=0;exitDy=0;" edge="1" parent="1" source="WqeRCM-Ro7xKb6VTzjDS-5" target="WqeRCM-Ro7xKb6VTzjDS-6">
          <mxGeometry width="50" height="50" relative="1" as="geometry">
            <mxPoint x="340" y="970" as="sourcePoint"/>
            <mxPoint x="390" y="920" as="targetPoint"/>
            <Array as="points">
              <mxPoint x="630" y="670"/>
            </Array>
          </mxGeometry>
        </mxCell>
        <mxCell id="WqeRCM-Ro7xKb6VTzjDS-64" value="" style="curved=1;endArrow=classic;html=1;dashed=1;strokeColor=#7EA6E0;strokeWidth=1;entryX=0.75;entryY=0;entryDx=0;entryDy=0;exitX=0;exitY=0.5;exitDx=0;exitDy=0;" edge="1" parent="1" source="WqeRCM-Ro7xKb6VTzjDS-3" target="WqeRCM-Ro7xKb6VTzjDS-6">
          <mxGeometry width="50" height="50" relative="1" as="geometry">
            <mxPoint x="340" y="970" as="sourcePoint"/>
            <mxPoint x="390" y="920" as="targetPoint"/>
            <Array as="points">
              <mxPoint x="510" y="620"/>
            </Array>
          </mxGeometry>
        </mxCell>
        <mxCell id="WqeRCM-Ro7xKb6VTzjDS-65" value="" style="curved=1;endArrow=classic;html=1;dashed=1;strokeColor=#7EA6E0;strokeWidth=1;entryX=0.75;entryY=0;entryDx=0;entryDy=0;exitX=0;exitY=0.3;exitDx=0;exitDy=0;" edge="1" parent="1" source="WqeRCM-Ro7xKb6VTzjDS-12" target="WqeRCM-Ro7xKb6VTzjDS-6">
          <mxGeometry width="50" height="50" relative="1" as="geometry">
            <mxPoint x="370" y="970" as="sourcePoint"/>
            <mxPoint x="420" y="920" as="targetPoint"/>
            <Array as="points">
              <mxPoint x="660" y="520"/>
              <mxPoint x="600" y="510"/>
              <mxPoint x="500" y="610"/>
            </Array>
          </mxGeometry>
        </mxCell>
        <mxCell id="WqeRCM-Ro7xKb6VTzjDS-66" value="" style="shape=image;html=1;verticalAlign=top;verticalLabelPosition=bottom;labelBackgroundColor=#ffffff;imageAspect=0;aspect=fixed;image=https://cdn1.iconfinder.com/data/icons/hawcons/32/699625-icon-113-document-file-txt-128.png;dashed=1;dashPattern=1 1;strokeColor=#0000FF;strokeWidth=1;fillColor=#F19C99;" vertex="1" parent="1">
          <mxGeometry x="350" y="682" width="38" height="38" as="geometry"/>
        </mxCell>
        <mxCell id="WqeRCM-Ro7xKb6VTzjDS-67" value="" style="shape=image;html=1;verticalAlign=top;verticalLabelPosition=bottom;labelBackgroundColor=#ffffff;imageAspect=0;aspect=fixed;image=https://cdn1.iconfinder.com/data/icons/hawcons/32/699625-icon-113-document-file-txt-128.png;dashed=1;dashPattern=1 1;strokeColor=#0000FF;strokeWidth=1;fillColor=#F19C99;" vertex="1" parent="1">
          <mxGeometry x="830" y="516" width="38" height="38" as="geometry"/>
        </mxCell>
        <mxCell id="WqeRCM-Ro7xKb6VTzjDS-68" value="" style="curved=1;endArrow=classic;html=1;dashed=1;strokeColor=#7EA6E0;strokeWidth=1;entryX=0.75;entryY=0;entryDx=0;entryDy=0;exitX=0.25;exitY=1;exitDx=0;exitDy=0;" edge="1" parent="1" source="WqeRCM-Ro7xKb6VTzjDS-11" target="WqeRCM-Ro7xKb6VTzjDS-6">
          <mxGeometry width="50" height="50" relative="1" as="geometry">
            <mxPoint x="340" y="970" as="sourcePoint"/>
            <mxPoint x="390" y="920" as="targetPoint"/>
            <Array as="points">
              <mxPoint x="460" y="510"/>
            </Array>
          </mxGeometry>
        </mxCell>
        <mxCell id="WqeRCM-Ro7xKb6VTzjDS-69" value="" style="curved=1;endArrow=classic;html=1;dashed=1;strokeColor=#7EA6E0;strokeWidth=1;exitX=0;exitY=0.25;exitDx=0;exitDy=0;entryX=0.75;entryY=0;entryDx=0;entryDy=0;" edge="1" parent="1" source="WqeRCM-Ro7xKb6VTzjDS-10" target="WqeRCM-Ro7xKb6VTzjDS-6">
          <mxGeometry width="50" height="50" relative="1" as="geometry">
            <mxPoint x="340" y="970" as="sourcePoint"/>
            <mxPoint x="590" y="1080" as="targetPoint"/>
            <Array as="points">
              <mxPoint x="670" y="462"/>
              <mxPoint x="480" y="530"/>
            </Array>
          </mxGeometry>
        </mxCell>
        <mxCell id="WqeRCM-Ro7xKb6VTzjDS-70" value="" style="shape=image;html=1;verticalAlign=top;verticalLabelPosition=bottom;labelBackgroundColor=#ffffff;imageAspect=0;aspect=fixed;image=https://cdn1.iconfinder.com/data/icons/hawcons/32/698356-icon-103-document-file-yml-128.png;dashed=1;dashPattern=1 1;strokeColor=#0000FF;strokeWidth=1;fillColor=#F19C99;" vertex="1" parent="1">
          <mxGeometry x="588" y="529" width="44" height="44" as="geometry"/>
        </mxCell>
        <mxCell id="WqeRCM-Ro7xKb6VTzjDS-71" value="" style="endArrow=none;startArrow=classic;html=1;strokeWidth=2;entryX=0.5;entryY=1;entryDx=0;entryDy=0;exitX=0.5;exitY=0;exitDx=0;exitDy=0;endFill=0;" edge="1" parent="1" source="WqeRCM-Ro7xKb6VTzjDS-3" target="WqeRCM-Ro7xKb6VTzjDS-70">
          <mxGeometry width="50" height="50" relative="1" as="geometry">
            <mxPoint x="620" y="612" as="sourcePoint"/>
            <mxPoint x="740" y="570" as="targetPoint"/>
          </mxGeometry>
        </mxCell>
        <mxCell id="WqeRCM-Ro7xKb6VTzjDS-73" value="" style="shape=image;html=1;verticalAlign=top;verticalLabelPosition=bottom;labelBackgroundColor=#ffffff;imageAspect=0;aspect=fixed;image=https://cdn3.iconfinder.com/data/icons/freeapplication/png/24x24/Apply.png;" vertex="1" parent="1">
          <mxGeometry x="598" y="610" width="24" height="24" as="geometry"/>
        </mxCell>
        <mxCell id="WqeRCM-Ro7xKb6VTzjDS-74" value="" style="shape=image;html=1;verticalAlign=top;verticalLabelPosition=bottom;labelBackgroundColor=#ffffff;imageAspect=0;aspect=fixed;image=https://cdn3.iconfinder.com/data/icons/freeapplication/png/24x24/Apply.png" vertex="1" parent="1">
          <mxGeometry x="416" y="850" width="24" height="24" as="geometry"/>
        </mxCell>
        <mxCell id="WqeRCM-Ro7xKb6VTzjDS-75" value="" style="shape=image;html=1;verticalAlign=top;verticalLabelPosition=bottom;labelBackgroundColor=#ffffff;imageAspect=0;aspect=fixed;image=https://cdn3.iconfinder.com/data/icons/freeapplication/png/24x24/Apply.png" vertex="1" parent="1">
          <mxGeometry x="478" y="850" width="24" height="24" as="geometry"/>
        </mxCell>
        <mxCell id="WqeRCM-Ro7xKb6VTzjDS-76" value="" style="shape=image;html=1;verticalAlign=top;verticalLabelPosition=bottom;labelBackgroundColor=#ffffff;imageAspect=0;aspect=fixed;image=https://cdn3.iconfinder.com/data/icons/freeapplication/png/24x24/Apply.png" vertex="1" parent="1">
          <mxGeometry x="516.5" y="762" width="24" height="24" as="geometry"/>
        </mxCell>
        <mxCell id="WqeRCM-Ro7xKb6VTzjDS-77" value="" style="shape=image;html=1;verticalAlign=top;verticalLabelPosition=bottom;labelBackgroundColor=#ffffff;imageAspect=0;aspect=fixed;image=https://cdn3.iconfinder.com/data/icons/freeapplication/png/24x24/Apply.png" vertex="1" parent="1">
          <mxGeometry x="803" y="850" width="24" height="24" as="geometry"/>
        </mxCell>
        <mxCell id="WqeRCM-Ro7xKb6VTzjDS-78" value="" style="shape=image;html=1;verticalAlign=top;verticalLabelPosition=bottom;labelBackgroundColor=#ffffff;imageAspect=0;aspect=fixed;image=https://cdn3.iconfinder.com/data/icons/freeapplication/png/24x24/Apply.png" vertex="1" parent="1">
          <mxGeometry x="863" y="850" width="24" height="24" as="geometry"/>
        </mxCell>
        <mxCell id="WqeRCM-Ro7xKb6VTzjDS-79" value="" style="shape=image;html=1;verticalAlign=top;verticalLabelPosition=bottom;labelBackgroundColor=#ffffff;imageAspect=0;aspect=fixed;image=https://cdn3.iconfinder.com/data/icons/freeapplication/png/24x24/Apply.png" vertex="1" parent="1">
          <mxGeometry x="926" y="850" width="24" height="24" as="geometry"/>
        </mxCell>
        <mxCell id="WqeRCM-Ro7xKb6VTzjDS-80" value="" style="shape=image;html=1;verticalAlign=top;verticalLabelPosition=bottom;labelBackgroundColor=#ffffff;imageAspect=0;aspect=fixed;image=https://cdn3.iconfinder.com/data/icons/freeapplication/png/24x24/Apply.png" vertex="1" parent="1">
          <mxGeometry x="878" y="762" width="24" height="24" as="geometry"/>
        </mxCell>
        <mxCell id="WqeRCM-Ro7xKb6VTzjDS-81" value="" style="shape=image;html=1;verticalAlign=top;verticalLabelPosition=bottom;labelBackgroundColor=#ffffff;imageAspect=0;aspect=fixed;image=https://cdn3.iconfinder.com/data/icons/freeapplication/png/24x24/Apply.png" vertex="1" parent="1">
          <mxGeometry x="470" y="658" width="24" height="24" as="geometry"/>
        </mxCell>
        <mxCell id="WqeRCM-Ro7xKb6VTzjDS-82" value="" style="shape=image;html=1;verticalAlign=top;verticalLabelPosition=bottom;labelBackgroundColor=#ffffff;imageAspect=0;aspect=fixed;image=https://cdn3.iconfinder.com/data/icons/freeapplication/png/24x24/Apply.png" vertex="1" parent="1">
          <mxGeometry x="926" y="610" width="24" height="24" as="geometry"/>
        </mxCell>
        <mxCell id="WqeRCM-Ro7xKb6VTzjDS-83" value="" style="shape=image;html=1;verticalAlign=top;verticalLabelPosition=bottom;labelBackgroundColor=#ffffff;imageAspect=0;aspect=fixed;image=https://cdn3.iconfinder.com/data/icons/freeapplication/png/24x24/Apply.png;opacity=60;" vertex="1" parent="1">
          <mxGeometry x="721.5" y="529" width="24" height="24" as="geometry"/>
        </mxCell>
        <mxCell id="WqeRCM-Ro7xKb6VTzjDS-84" value="" style="shape=image;html=1;verticalAlign=top;verticalLabelPosition=bottom;labelBackgroundColor=#ffffff;imageAspect=0;aspect=fixed;image=https://cdn3.iconfinder.com/data/icons/freeapplication/png/24x24/Apply.png;opacity=60;" vertex="1" parent="1">
          <mxGeometry x="558" y="450" width="24" height="24" as="geometry"/>
        </mxCell>
        <mxCell id="WqeRCM-Ro7xKb6VTzjDS-85" value="" style="shape=image;html=1;verticalAlign=top;verticalLabelPosition=bottom;labelBackgroundColor=#ffffff;imageAspect=0;aspect=fixed;image=https://cdn3.iconfinder.com/data/icons/freeapplication/png/24x24/Apply.png;opacity=65;" vertex="1" parent="1">
          <mxGeometry x="718" y="678" width="24" height="24" as="geometry"/>
        </mxCell>
      </root>
    </mxGraphModel>
  </diagram>
</mxfile>
